<?xml version="1.0" encoding="utf-8"?>
<!-- Generator: Adobe Illustrator 23.1.1, SVG Export Plug-In . SVG Version: 6.00 Build 0)  -->
<svg version="1.1" xmlns="http://www.w3.org/2000/svg" xmlns:xlink="http://www.w3.org/1999/xlink" x="0px" y="0px"
	 viewBox="0 0 359.7 432" style="enable-background:new 0 0 359.7 432;" xml:space="preserve">
<style type="text/css">
	.st0{fill:#8E4C9E;}
	.st1{fill:none;stroke:#8E4C9E;stroke-width:7;stroke-miterlimit:10;}
	.st2{fill-rule:evenodd;clip-rule:evenodd;fill:#FFFFFF;}
	.st3{display:none;}
	.st4{display:inline;}
	.st5{display:inline;fill-rule:evenodd;clip-rule:evenodd;fill:#FFFFFF;}
</style>
<g id="Layer_3">
	<path class="st0" d="M301.1,397.5H61.5c-6.2,0-11.2-5-11.2-11.2V146.7c0-6.2,5-11.2,11.2-11.2h239.6c6.2,0,11.2,5,11.2,11.2v239.6
		C312.3,392.4,307.2,397.5,301.1,397.5z"/>
	<polyline class="st1" points="80.8,41.6 105.8,66.6 105.8,99.1 135.3,99.1 179.8,143.6 279.3,44 	"/>
	<circle class="st0" cx="80.8" cy="41.6" r="12"/>
	<circle class="st0" cx="279.3" cy="41.6" r="12"/>
	<g>
		<path class="st2" d="M129,218.8l-17.8,17.8c-7.2,7.2-18-3.7-10.9-10.8l17.9-17.9l-17.9-17.8c-7.1-7.2,3.7-18,10.9-10.9l17.8,17.9
			l17.9-17.9c7.1-7.1,18,3.7,10.8,10.9l-17.8,17.8l17.8,17.9c7.2,7.1-3.7,18-10.8,10.8L129,218.8z"/>
	</g>
	<g>
		<path class="st2" d="M231.1,218.8l-17.8,17.8c-7.2,7.2-18-3.7-10.9-10.8l17.9-17.9l-17.9-17.8c-7.1-7.2,3.7-18,10.9-10.9
			l17.8,17.9l17.9-17.9c7.1-7.1,18,3.7,10.8,10.9L242,207.9l17.8,17.9c7.2,7.1-3.7,18-10.8,10.8L231.1,218.8z"/>
	</g>
</g>
<g id="Layer_1" class="st3">
	<g class="st4">
		<path class="st2" d="M129,218.8l-17.8,17.8c-7.2,7.2-18-3.7-10.9-10.8l17.9-17.9l-17.9-17.8c-7.1-7.2,3.7-18,10.9-10.9l17.8,17.9
			l17.9-17.9c7.1-7.1,18,3.7,10.8,10.9l-17.8,17.8l17.8,17.9c7.2,7.1-3.7,18-10.8,10.8L129,218.8z"/>
	</g>
	<g class="st4">
		<path class="st2" d="M231.1,218.8l-17.8,17.8c-7.2,7.2-18-3.7-10.9-10.8l17.9-17.9l-17.9-17.8c-7.1-7.2,3.7-18,10.9-10.9
			l17.8,17.9l17.9-17.9c7.1-7.1,18,3.7,10.8,10.9L242,207.9l17.8,17.9c7.2,7.1-3.7,18-10.8,10.8L231.1,218.8z"/>
	</g>
	<ellipse class="st5" cx="180.1" cy="319" rx="84.7" ry="36.7"/>
	<g class="st4">
		<path class="st2" d="M268.5,387.9c8.7-2.6,13.7-11.7,11.1-20.3c-1.7-5.8-9.7-13.7-24-23.7c-6.6,16.2-9.1,27.1-7.4,32.9
			C250.7,385.5,259.8,390.5,268.5,387.9z"/>
	</g>
</g>
<g id="Layer_2">
	<g transform="translate(0,-952.36216)">
		<path class="st2" d="M199.9,1262.6l-0.2,12.4v16.2v20.4c0,2.3,1.8,4.1,4.1,4.1c2.3,0,4.1-1.8,4.1-4.1v-20.4V1278
			c0-1.8,1.4-3.2,3.2-3.2c1.8,0,3.2,1.4,3.2,3.2v13.1v8.6c0,2.6,2.1,4.7,4.7,4.7c2.6,0,4.7-2.1,4.7-4.7v-8.6v-2.7
			c0-2.6,2.1-4.7,4.7-4.7c2.6,0,4.7,2.1,4.7,4.7v2.7v12.4c0,1.8,1.4,3.2,3.2,3.2c1.8,0,3.2-1.4,3.2-3.2v-12.4v-7.1
			c0-2.3,1.8-4.1,4.1-4.1c2.3,0,4.1,1.8,4.1,4.1v7.1v27.4c0,2.3,1.8,4.1,4.1,4.1c2.3,0,4.1-1.8,4.1-4.1v-27.4V1278
			c0-1.8,1.4-3.2,3.2-3.2s3.2,1.4,3.2,3.2v13.1v8.6c0,2.6,2.1,4.7,4.7,4.7c2.6,0,4.7-2.1,4.7-4.7v-37.2"/>
	</g>
	<path class="st2" d="M272.2,311.7c0,21.7-40.7,23.6-90.9,23.6s-90.9-1.8-90.9-23.6c0-21.7,40.7-39.3,90.9-39.3
		S272.2,290,272.2,311.7z"/>
</g>
</svg>
